<?xml version="1.0" standalone="no"?>
<!DOCTYPE svg PUBLIC "-//W3C//DTD SVG 20010904//EN"
 "http://www.w3.org/TR/2001/REC-SVG-20010904/DTD/svg10.dtd">
<svg version="1.0" xmlns="http://www.w3.org/2000/svg"
 width="420.000000pt" height="420.000000pt" viewBox="0 0 420.000000 420.000000"
 preserveAspectRatio="xMidYMid meet">
<metadata>
Created by potrace 1.11, written by Peter Selinger 2001-2013
</metadata>
<g transform="translate(0.000000,420.000000) scale(0.100000,-0.100000)"
fill="#000000" stroke="none">
<path d="M1765 4184 c-312 -56 -612 -184 -862 -370 -106 -79 -335 -309 -416
-419 -146 -199 -263 -446 -323 -680 -51 -204 -57 -264 -51 -547 5 -273 16
-351 76 -539 l28 -87 -33 -68 c-58 -119 -74 -201 -74 -371 0 -117 4 -167 20
-227 22 -87 82 -214 135 -286 86 -117 310 -295 341 -270 17 15 17 1559 -1
1566 -15 6 -103 -45 -162 -92 l-42 -35 -6 38 c-4 21 -10 56 -14 78 -12 67 -13
314 -1 410 44 358 183 674 415 945 228 267 589 477 943 549 154 32 197 36 372
34 351 -2 662 -98 957 -295 150 -100 353 -303 452 -452 190 -286 281 -563 297
-906 6 -110 -5 -282 -23 -371 l-5 -27 -62 45 c-72 53 -133 86 -146 78 -5 -3
-9 -322 -9 -779 0 -613 3 -777 13 -785 33 -27 252 148 341 274 58 81 109 191
136 290 17 63 22 108 22 215 0 154 -19 244 -77 366 l-34 72 29 98 c118 397
114 814 -12 1198 -195 596 -681 1083 -1272 1275 -234 76 -288 84 -597 87 -204
2 -296 -1 -355 -12z"/>
<path d="M2115 2612 c-8 -8 -6 -236 3 -248 8 -13 220 -14 240 -1 8 6 12 42 12
122 0 80 -4 116 -12 122 -14 9 -234 13 -243 5z"/>
<path d="M1541 2316 c-4 -6 -7 -63 -7 -126 l1 -115 115 -1 c63 -1 120 1 126 3
7 3 10 43 9 121 -1 64 -3 120 -4 123 -2 11 -231 6 -240 -5z"/>
<path d="M2120 2200 l0 -120 120 0 121 0 -3 118 -3 117 -117 3 -118 3 0 -121z"/>
<path d="M1542 2025 c-10 -15 -11 -218 -1 -231 5 -6 55 -10 126 -9 l118 0 0
125 0 125 -118 0 c-70 0 -121 -4 -125 -10z"/>
<path d="M2121 2020 c-5 -12 -7 -152 -2 -220 1 -13 20 -15 117 -13 64 1 118 4
122 8 8 8 7 224 -2 232 -3 3 -56 7 -117 7 -90 1 -112 -2 -118 -14z"/>
<path d="M863 1963 c-10 -4 -13 -186 -13 -863 0 -848 0 -858 20 -863 11 -3 68
-4 127 -4 l108 2 0 868 1 867 -116 -1 c-63 0 -121 -3 -127 -6z"/>
<path d="M3083 1103 l2 -868 85 -3 c47 -2 104 0 127 3 l43 6 -1 859 c0 761 -2
859 -15 864 -9 3 -67 6 -129 6 l-113 0 1 -867z"/>
<path d="M2127 1740 c-8 -4 -12 -40 -11 -124 l0 -120 117 0 c65 1 120 4 123 7
7 7 11 237 4 238 -19 4 -223 3 -233 -1z"/>
<path d="M1542 1623 l3 -118 118 -3 117 -3 0 121 0 120 -120 0 -121 0 3 -117z"/>
<path d="M1255 1453 c-8 -7 -12 -136 -6 -226 1 -16 12 -17 124 -15 l122 3 0
120 0 120 -115 3 c-63 1 -119 -1 -125 -5z"/>
<path d="M2694 1447 c-2 -7 -3 -62 -2 -123 l3 -109 120 0 120 0 0 120 0 120
-118 3 c-91 2 -119 0 -123 -11z"/>
<path d="M1542 1335 c0 -81 3 -115 11 -116 7 -1 60 -2 120 -3 l107 -1 0 117 0
118 -118 0 -119 0 -1 -115z"/>
<path d="M2122 1333 l3 -118 105 -1 c58 0 110 1 116 3 7 3 11 45 11 118 l0
115 -119 0 -119 0 3 -117z"/>
<path d="M1249 1153 c-1 -30 -1 -186 0 -211 1 -22 2 -23 124 -20 l122 3 0 120
0 120 -122 3 c-112 2 -123 1 -124 -15z"/>
<path d="M1545 1145 c-2 -11 -3 -65 -2 -119 l2 -100 95 1 c52 1 105 1 118 2
22 1 23 2 20 118 l-3 117 -113 1 c-105 0 -113 -1 -117 -20z"/>
<path d="M1829 1168 c-1 -4 -1 -220 0 -235 1 -10 32 -13 121 -13 100 0 120 3
121 15 1 8 1 58 1 110 0 52 0 102 -1 110 -1 12 -21 15 -121 15 -66 0 -120 -1
-121 -2z"/>
<path d="M2123 1154 c-2 -5 -2 -59 -1 -119 l3 -108 95 0 c52 1 104 1 116 2 19
1 20 7 20 116 0 63 -3 115 -6 116 -35 7 -223 2 -227 -7z"/>
<path d="M2699 1160 c-1 -3 -2 -56 -3 -118 -1 -105 0 -112 19 -113 69 -3 195
-1 206 3 11 4 14 30 13 112 -1 59 -4 109 -7 113 -8 7 -226 10 -228 3z"/>
<path d="M1255 758 l0 -118 27 -1 c16 0 57 0 93 0 36 0 76 0 90 0 l25 1 0 118
0 117 -117 1 -118 0 0 -118z"/>
<path d="M1543 758 c-1 -65 3 -118 8 -119 5 0 34 0 64 0 30 0 80 0 110 0 l56
1 -3 118 -3 117 -116 0 -115 0 -1 -117z"/>
<path d="M1835 872 c-3 -3 -5 -56 -5 -118 l0 -113 53 -3 c28 -2 83 -2 120 0
l68 4 -3 116 -3 116 -113 1 c-62 1 -114 -1 -117 -3z"/>
<path d="M2120 758 l0 -118 28 -1 c84 -2 196 1 201 7 12 12 10 224 -2 225 -7
1 -60 2 -119 3 l-108 1 0 -117z"/>
<path d="M2410 755 l0 -120 83 2 c45 1 98 2 117 2 l35 1 0 115 c0 63 -2 116
-5 116 -3 1 -56 2 -117 3 l-113 2 0 -121z"/>
<path d="M2702 866 c-9 -16 -8 -217 1 -223 10 -6 214 -6 225 0 5 4 8 196 3
227 -2 10 -222 6 -229 -4z"/>
</g>
</svg>
